<svg xmlns="http://www.w3.org/2000/svg" xmlns:xlink="http://www.w3.org/1999/xlink" width="48" height="48" viewBox="0 0 100 100"><rect width="100%" height="100%" fill="#000000"></rect><g transform="translate(50 50) scale(0.69 0.69) rotate(0) translate(-50 -50)" style="fill:#FFFFFF"><svg fill="#FFFFFF" xmlns="http://www.w3.org/2000/svg" xmlns:xlink="http://www.w3.org/1999/xlink" version="1.1" x="0px" y="0px" viewBox="0 0 1024 1024" style="enable-background:new 0 0 1024 1024;" xml:space="preserve"><g><g><g><path d="M914.7,512c0,11.2-0.4,22.4-1.3,33.6c-0.4,5.1-0.9,10.1-1.5,15.1c-0.2,1.4-0.3,2.7-0.5,4.1     c-0.5,4.5,0.5-3-0.2,1.5c-0.5,3.2-0.9,6.3-1.4,9.5c-3.4,20.9-8.4,41.6-15,61.7c-3.3,10.2-7.1,20.1-11.1,30     c-0.2,0.5-1.1,2.7,0,0.1c-0.5,1.2-1,2.4-1.6,3.7c-1.1,2.4-2.1,4.9-3.3,7.3c-2.2,4.8-4.5,9.6-6.9,14.3     c-9.3,18.4-20,36.1-31.9,52.9c-3,4.3-6.2,8.5-9.3,12.7c1.8-2.3-1.8,2.3-2.5,3.2c-1.9,2.4-3.8,4.8-5.8,7.1     c-6.7,8-13.7,15.8-21,23.4c-7,7.2-14.2,14.2-21.7,20.9c-3.9,3.5-7.9,6.9-11.9,10.3c-1.7,1.4-3.4,2.8-5.1,4.1     c-1,0.8-2,1.6-3.1,2.4c-0.7,0.5-1.4,1.1-2.1,1.6c1.3-1,1.3-1-0.1,0.1c-16.5,12.4-33.7,23.8-51.7,33.7     c-9.3,5.1-18.7,9.9-28.4,14.2c-2,0.9-4,1.8-6.1,2.7c-1.2,0.5-2.4,1.1-3.7,1.6c3.1-1.3-1,0.4-1.3,0.5c-4.9,2-9.9,3.9-14.9,5.8     c-20.2,7.4-41.1,13.2-62.2,17.4c-4.9,1-9.8,1.8-14.8,2.6c-2.7,0.4-5.4,0.8-8.1,1.2c-3,0.4-0.7,0.1-0.1,0     c-1.8,0.2-3.6,0.5-5.5,0.7c-11,1.3-22.1,2.1-33.2,2.5c-21.9,0.8-43.8-0.1-65.6-2.7c-1.4-0.2-2.7-0.3-4.1-0.5     c3.4,0.4-1.1-0.2-1.5-0.2c-2.3-0.3-4.5-0.7-6.8-1c-5.8-0.9-11.7-2-17.4-3.2c-10.2-2.1-20.2-4.5-30.2-7.3     c-10.3-2.9-20.5-6.2-30.6-10c-4.6-1.7-9.1-3.5-13.7-5.3c-0.3-0.1-4.4-1.8-1.3-0.5c-1.2-0.5-2.4-1-3.7-1.6     c-2.8-1.2-5.7-2.5-8.5-3.8c-18.8-8.7-36.9-18.8-54.1-30.1c-8.4-5.5-16.6-11.4-24.6-17.5c2.6,2-0.8-0.6-1.1-0.9     c-1-0.8-2.1-1.6-3.1-2.4c-2-1.6-4.1-3.3-6.1-5c-4-3.4-8-6.8-11.9-10.3c-15.3-13.7-29.5-28.6-42.6-44.3c-1.7-2-3.3-4.1-5-6.1     c-0.8-1-1.6-2.1-2.4-3.1c-2.7-3.4,1.8,2.4-0.9-1.1c-3.2-4.2-6.3-8.4-9.3-12.7c-6.1-8.6-11.8-17.4-17.2-26.5     c-5.2-8.7-10.1-17.6-14.6-26.6c-2.4-4.7-4.7-9.5-6.9-14.3c-0.9-2-1.8-4-2.7-6.1c-0.5-1.2-1.1-2.4-1.6-3.7c1.3,3.1-0.8-2-1-2.6     c-7.9-19.5-14.3-39.5-19.2-60c-2.5-10.6-4.6-21.3-6.3-32c-0.4-2.3-0.7-4.5-1-6.8c-0.6-4.5,0.3,3.1-0.2-1.5     c-0.2-1.4-0.3-2.7-0.5-4.1c-0.6-5.5-1.2-11-1.6-16.5c-1.7-22.3-1.6-44.8,0.2-67.1c0.4-5.1,0.9-10.1,1.5-15.1     c0.2-1.4,0.3-2.7,0.5-4.1c-0.4,3.4,0.2-1.1,0.2-1.5c0.4-2.7,0.8-5.4,1.2-8.1c1.8-10.7,3.9-21.4,6.5-32     c5-20.4,11.7-40.3,19.6-59.8c1.7-4.1-1.2,2.7,0.6-1.3c0.5-1.2,1.1-2.4,1.6-3.7c0.9-2,1.8-4,2.7-6c2.4-5.2,4.9-10.4,7.5-15.5     c4.6-9,9.5-17.8,14.8-26.5c5.4-9,11.2-17.8,17.3-26.3c2.8-3.9,5.7-7.8,8.6-11.6c-2,2.6,0.6-0.8,0.9-1.1c0.8-1,1.6-2.1,2.4-3.1     c1.8-2.2,3.6-4.4,5.4-6.6c13.3-15.9,27.8-30.8,43.3-44.6c3.6-3.2,7.2-6.3,10.9-9.4c2-1.7,4.1-3.3,6.1-5c1-0.8,2.1-1.6,3.1-2.4     c3.4-2.7-2.4,1.8,1.1-0.9c8.4-6.3,16.9-12.4,25.8-18.1c17.3-11.3,35.5-21.2,54.3-29.8c2.4-1.1,4.8-2.2,7.3-3.2     c0.3-0.1,4.4-1.9,1.3-0.6c1.2-0.5,2.5-1,3.7-1.5c4.9-2,9.9-3.9,14.9-5.7c9.9-3.6,19.9-6.8,30-9.6c10.2-2.8,20.5-5.3,30.9-7.3     c4.9-1,9.8-1.8,14.8-2.6c2.7-0.4,5.4-0.8,8.1-1.2c4.5-0.6-3.1,0.3,1.5-0.2c1.8-0.2,3.6-0.4,5.5-0.7c21.8-2.5,43.7-3.2,65.6-2.3     c11.1,0.5,22.2,1.4,33.2,2.7c0.9,0.1,1.8,0.2,2.7,0.3c-3.4-0.4,1.1,0.2,1.5,0.2c2.7,0.4,5.4,0.8,8.1,1.2c5.4,0.9,10.8,1.9,16.1,3     c20.7,4.2,41,10,60.8,17.3c5,1.8,9.9,3.8,14.9,5.8c4.1,1.7-2.7-1.2,1.3,0.6c0.8,0.4,1.6,0.7,2.4,1.1c2.8,1.2,5.7,2.5,8.5,3.8     c9.6,4.4,19,9.3,28.3,14.4c8.8,4.9,17.4,10.2,25.9,15.7c4.4,2.9,8.7,5.9,13,8.9c1.8,1.3,3.5,2.6,5.3,3.9c1.1,0.8,2.1,1.6,3.2,2.4     c0.4,0.3,4.8,3.7,2.2,1.6c16.2,12.6,31.5,26.4,45.7,41.2c7.2,7.6,14.2,15.4,20.9,23.5c1.4,1.7,2.8,3.4,4.1,5.1     c0.8,1,1.6,2.1,2.4,3.1c2.7,3.4-1.8-2.4,0.9,1.1c3.2,4.2,6.3,8.4,9.3,12.7c12.1,17.2,23,35.4,32.4,54.2c2.2,4.3,4.3,8.7,6.3,13.1     c1.1,2.4,2.2,4.8,3.2,7.3c0-0.1,1.7,3.9,0.8,1.9c-0.6-1.5,1.1,2.7,1.3,3.1c4,9.9,7.7,20,10.9,30.1c6.4,20.2,11.3,40.9,14.6,61.9     c0.4,2.7,0.8,5.4,1.2,8.1c-0.5-3.5,0.1,1.1,0.2,1.5c0.1,1.1,0.3,2.3,0.4,3.4c0.6,5.3,1.1,10.6,1.5,15.8     C914.3,490.5,914.7,501.3,914.7,512c0,7.8,6.9,15.4,15,15c8.1-0.4,15-6.6,15-15c-0.1-89.1-27.8-177.4-79.6-250     c-51.2-71.7-123-126.7-205.8-156.9c-84.5-30.9-178.9-34-265.4-9.5c-83.7,23.7-159.9,73.3-215.2,140.5     c-57,69.2-91.4,154.3-98.2,243.8c-6.8,89,14.8,179.5,61,255.9c44.9,74.1,112.2,134.5,191.2,170.2     c83.5,37.7,177.3,48.2,267.1,29.9c85.2-17.4,164.5-61.6,224.5-124.3c60.6-63.3,101.7-145,115-231.7c3.4-22.4,5.3-45,5.4-67.7     c0-7.8-6.9-15.4-15-15C921.6,497.4,914.7,503.6,914.7,512z"></path></g></g><g><g><path d="M552.3,295c0,1.4-0.1,2.8-0.2,4.2c-0.1,4.3,0.7-2.7-0.1,1.5c-0.5,2.2-0.9,4.4-1.6,6.6     c-0.4,1.3-0.8,2.5-1.3,3.8c1.2-3.1-0.4,0.9-0.6,1.3c-1.2,2.4-2.6,4.5-4,6.8c-2.2,3.5,1.9-1.9-0.8,1.1c-0.9,1-1.7,2-2.6,2.9     c-1.5,1.6-3.1,3-4.8,4.4c2.6-2.1-0.8,0.5-1.2,0.7c-1.1,0.7-2.2,1.4-3.4,2.1c-1.2,0.6-2.3,1.2-3.5,1.8c-3.6,1.8,2.5-0.6-1.3,0.5     c-2.6,0.8-5.1,1.6-7.8,2.2c-0.5,0.1-4.8,0.6-1.4,0.3c-0.9,0.1-1.8,0.2-2.8,0.2c-2.8,0.1-5.6,0-8.4-0.2c3.4,0.3-1-0.2-1.4-0.3     c-1.3-0.3-2.6-0.6-3.9-0.9c-1.3-0.4-2.5-0.8-3.8-1.2c-4-1.2,2.4,1.4-1.3-0.5c-2-1-3.9-2-5.8-3.2c-1.1-0.7-2.2-1.4-3.3-2.2     c2.7,1.9-0.7-0.7-1-0.9c-2-1.8-3.7-3.7-5.5-5.6c-2.8-3,1.4,2.4-0.8-1.1c-0.7-1.1-1.5-2.2-2.1-3.3c-1.1-1.9-2.1-3.8-3-5.8     c1.3,3.1-0.3-1-0.4-1.4c-0.4-1.3-0.8-2.6-1.1-3.9c-0.3-1.1-0.5-2.2-0.7-3.3c-0.1-0.7-0.2-1.3-0.3-2c0.2,1.7,0.3,1.7,0.1-0.1     c-0.1-2.8-0.1-5.6,0-8.4c0.1-4.3-0.4,1.7,0-0.8c0.2-1.1,0.4-2.2,0.6-3.3c0.6-2.6,1.4-5.2,2.3-7.7c-1,2.7,0,0,0.3-0.7     c0.7-1.4,1.4-2.7,2.2-4.1c0.7-1.1,1.4-2.2,2.1-3.3c2.2-3.5-1.9,1.9,0.8-1.1c1.5-1.6,2.9-3.2,4.5-4.7c1-0.9,1.9-1.7,3-2.6     c-2.6,2.1,0.8-0.5,1.2-0.7c2.2-1.5,4.5-2.7,6.9-3.9c3.7-1.9-2.7,0.7,1.3-0.5c1.3-0.4,2.5-0.9,3.8-1.2c2.2-0.6,4.4-1.1,6.6-1.4     c-3.4,0.5,1.1,0,1.5,0c1.4-0.1,2.8-0.1,4.2-0.1c0.9,0,1.9,0.1,2.8,0.1c1.8,0.2,1.8,0.2,0.1-0.1c0.9,0.1,1.8,0.3,2.7,0.5     c2.9,0.6,5.6,1.4,8.4,2.4c2.4,0.8-3-1.6,0.7,0.3c1.6,0.8,3.1,1.6,4.6,2.5c1.1,0.7,2.2,1.4,3.3,2.1c3.4,2.1-1.8-1.8,1.1,0.8     c2.3,2.1,4.4,4.2,6.5,6.5c2.8,3-1.4-2.4,0.8,1.1c0.7,1.1,1.5,2.2,2.1,3.3c0.7,1.1,1.3,2.3,1.9,3.5c0.4,0.8,0.8,1.6,1.1,2.4     c-0.7-1.5-0.7-1.5,0,0.1c0.8,2.6,1.6,5.1,2.2,7.8c0.1,0.5,0.6,4.8,0.3,1.4C552.2,291.3,552.3,293.1,552.3,295     c0.1,7.8,6.8,15.4,15,15c8-0.4,15.1-6.6,15-15c-0.4-29.8-19-56-46.9-66.3c-26.7-9.8-59-1.1-77,20.9     c-18.7,22.9-22.2,55.4-6.8,81.2c15.4,25.8,45.5,38.5,74.8,32.9c32.5-6.1,55.6-36.3,56-68.8c0.1-7.8-7-15.4-15-15     C559.1,280.4,552.4,286.6,552.3,295z"></path></g></g><g><g><path d="M566,703.6c0,16.7,0,33.4,0,50.2c5-5,10-10,15-15c-40.2,0-80.3,0-120.5,0c-5.8,0-11.6,0-17.4,0     c5,5,10,10,15,15c0-16.7,0-33.4,0-50.2c-5,5-10,10-15,15c10.3,0,20.5,0,30.8,0c8.1,0,15-6.9,15-15c0-26.3,0-52.7,0-79     c0-42,0-83.9,0-125.9c0-9.6,0-19.2,0-28.8c0-8.1-6.9-15-15-15c-10.3,0-20.5,0-30.8,0c5,5,10,10,15,15c0-16.7,0-33.4,0-50.2     c-5,5-10,10-15,15c31.3,0,62.5,0,93.8,0c4.4,0,8.9,0,13.3,0c-5-5-10-10-15-15c0,31.9,0,63.8,0,95.7c0,51,0,102.1,0,153.1     c0,11.7,0,23.3,0,35c0,8.1,6.9,15,15,15c10.3,0,20.5,0,30.8,0c7.8,0,15.4-6.9,15-15c-0.4-8.1-6.6-15-15-15c-10.3,0-20.5,0-30.8,0     c5,5,10,10,15,15c0-31.9,0-63.8,0-95.7c0-51,0-102.1,0-153.1c0-11.7,0-23.3,0-35c0-8.1-6.9-15-15-15c-31.3,0-62.5,0-93.8,0     c-4.4,0-8.9,0-13.3,0c-8.1,0-15,6.9-15,15c0,16.7,0,33.4,0,50.2c0,8.1,6.9,15,15,15c10.3,0,20.5,0,30.8,0c-5-5-10-10-15-15     c0,26.3,0,52.7,0,79c0,42,0,83.9,0,125.9c0,9.6,0,19.2,0,28.8c5-5,10-10,15-15c-10.3,0-20.5,0-30.8,0c-8.1,0-15,6.9-15,15     c0,16.7,0,33.4,0,50.2c0,8.1,6.9,15,15,15c40.2,0,80.3,0,120.5,0c5.8,0,11.6,0,17.4,0c8.1,0,15-6.9,15-15c0-16.7,0-33.4,0-50.2     c0-7.8-6.9-15.4-15-15C572.8,689,566,695.2,566,703.6z"></path></g></g></g></svg></g></svg>