<svg width="14" height="11" viewBox="0 0 14 11" fill="none" xmlns="http://www.w3.org/2000/svg">
<path d="M13 11H1C0.734865 10.9997 0.480665 10.8943 0.293186 10.7068C0.105707 10.5193 0.000264738 10.2651 0 10V7.5H1V10H13V7.5H14V10C13.9997 10.2651 13.8943 10.5193 13.7068 10.7068C13.5193 10.8943 13.2651 10.9997 13 11Z" fill="white"/>
<path d="M2.5 7.5H11.5V8.5H2.5V7.5Z" fill="white"/>
<path d="M2.5 5H11.5V6H2.5V5Z" fill="white"/>
<path d="M2.5 2.5H11.5V3.5H2.5V2.5Z" fill="white"/>
<path d="M2.5 0H11.5V1H2.5V0Z" fill="white"/>
</svg>
