<svg width="16" height="15" viewBox="0 0 16 15" fill="none" xmlns="http://www.w3.org/2000/svg">
<path d="M1 1.5C1 1.10218 1.15804 0.720644 1.43934 0.43934C1.72064 0.158035 2.10218 0 2.5 0H14.5C14.8978 0 15.2794 0.158035 15.5607 0.43934C15.842 0.720644 16 1.10218 16 1.5V13.5C16 13.8978 15.842 14.2794 15.5607 14.5607C15.2794 14.842 14.8978 15 14.5 15H2.5C2.10218 15 1.72064 14.842 1.43934 14.5607C1.15804 14.2794 1 13.8978 1 13.5V13H0.5C0.367392 13 0.240215 12.9473 0.146447 12.8536C0.0526784 12.7598 0 12.6326 0 12.5C0 12.3674 0.0526784 12.2402 0.146447 12.1464C0.240215 12.0527 0.367392 12 0.5 12H1V8H0.5C0.367392 8 0.240215 7.94732 0.146447 7.85355C0.0526784 7.75979 0 7.63261 0 7.5C0 7.36739 0.0526784 7.24021 0.146447 7.14645C0.240215 7.05268 0.367392 7 0.5 7H1V3H0.5C0.367392 3 0.240215 2.94732 0.146447 2.85355C0.0526784 2.75979 0 2.63261 0 2.5C0 2.36739 0.0526784 2.24021 0.146447 2.14645C0.240215 2.05268 0.367392 2 0.5 2H1V1.5ZM2.5 1C2.36739 1 2.24021 1.05268 2.14645 1.14645C2.05268 1.24021 2 1.36739 2 1.5V13.5C2 13.6326 2.05268 13.7598 2.14645 13.8536C2.24021 13.9473 2.36739 14 2.5 14H14.5C14.6326 14 14.7598 13.9473 14.8536 13.8536C14.9473 13.7598 15 13.6326 15 13.5V1.5C15 1.36739 14.9473 1.24021 14.8536 1.14645C14.7598 1.05268 14.6326 1 14.5 1H2.5Z" fill="white"/>
<path d="M5.035 7H6.563C6.61 6.816 6.683 6.643 6.777 6.484L5.697 5.404C5.34575 5.87193 5.11807 6.42083 5.035 7ZM6.404 4.697L7.484 5.777C7.644 5.683 7.816 5.61 8 5.563V4.035C7.42083 4.11807 6.87193 4.34575 6.404 4.697ZM9 4.035V5.563C9.184 5.61 9.357 5.683 9.516 5.777L10.596 4.697C10.1281 4.34575 9.57917 4.11807 9 4.035ZM11.303 5.404L10.223 6.484C10.317 6.644 10.39 6.816 10.437 7H11.965C11.8819 6.42084 11.6542 5.87195 11.303 5.404ZM11.965 8H10.437C10.39 8.184 10.317 8.357 10.223 8.516L11.303 9.596C11.6542 9.12805 11.8819 8.57916 11.965 8ZM10.596 10.303L9.516 9.223C9.356 9.317 9.184 9.39 9 9.437V10.965C9.57916 10.8819 10.128 10.6542 10.596 10.303ZM8 10.965V9.437C7.81879 9.3903 7.64508 9.31825 7.484 9.223L6.404 10.303C6.87195 10.6542 7.42084 10.8819 8 10.965ZM5.697 9.596L6.777 8.516C6.68174 8.35493 6.60969 8.18121 6.563 8H5.035C5.12 8.593 5.354 9.138 5.697 9.596ZM4 7.5C4 6.30653 4.47411 5.16193 5.31802 4.31802C6.16193 3.47411 7.30653 3 8.5 3C9.69347 3 10.8381 3.47411 11.682 4.31802C12.5259 5.16193 13 6.30653 13 7.5C13 8.69347 12.5259 9.83807 11.682 10.682C10.8381 11.5259 9.69347 12 8.5 12C7.30653 12 6.16193 11.5259 5.31802 10.682C4.47411 9.83807 4 8.69347 4 7.5ZM8.5 6.5C8.23478 6.5 7.98043 6.60536 7.79289 6.79289C7.60536 6.98043 7.5 7.23478 7.5 7.5C7.5 7.76522 7.60536 8.01957 7.79289 8.20711C7.98043 8.39464 8.23478 8.5 8.5 8.5C8.76522 8.5 9.01957 8.39464 9.20711 8.20711C9.39464 8.01957 9.5 7.76522 9.5 7.5C9.5 7.23478 9.39464 6.98043 9.20711 6.79289C9.01957 6.60536 8.76522 6.5 8.5 6.5Z" fill="white"/>
</svg>
