<svg width="16" height="18" viewBox="0 0 16 18" fill="none" xmlns="http://www.w3.org/2000/svg">
<path d="M15 0.0039978H13C12.7348 0.0039978 12.4804 0.109355 12.2929 0.296891C12.1054 0.484427 12 0.738781 12 1.004V17.996H16V1.004C16 0.738781 15.8946 0.484427 15.7071 0.296891C15.5196 0.109355 15.2652 0.0039978 15 0.0039978ZM9 6.004H7C6.73478 6.004 6.48043 6.10935 6.29289 6.29689C6.10536 6.48443 6 6.73878 6 7.004V17.996H10V7.004C10 6.73878 9.89464 6.48443 9.70711 6.29689C9.51957 6.10935 9.26522 6.004 9 6.004ZM3 12.004H1C0.734784 12.004 0.48043 12.1094 0.292893 12.2969C0.105357 12.4844 0 12.7388 0 13.004V17.996H4V13.004C4 12.7388 3.89464 12.4844 3.70711 12.2969C3.51957 12.1094 3.26522 12.004 3 12.004Z" fill="white"/>
</svg>
