<svg width="17" height="16" viewBox="0 0 17 16" fill="none" xmlns="http://www.w3.org/2000/svg">
<path fill-rule="evenodd" clip-rule="evenodd" d="M1.643 3.14304L0.427 1.92704C0.392036 1.89199 0.34745 1.86811 0.298896 1.85842C0.250342 1.84874 0.200005 1.85369 0.154269 1.87265C0.108532 1.89161 0.0694546 1.92372 0.0419903 1.96492C0.014526 2.00611 -8.81823e-05 2.05453 4.00326e-07 2.10404V5.75004C4.00326e-07 5.88804 0.112 6.00004 0.25 6.00004H3.896C3.94551 6.00013 3.99393 5.98552 4.03513 5.95805C4.07632 5.93059 4.10843 5.89151 4.12739 5.84578C4.14635 5.80004 4.1513 5.7497 4.14162 5.70115C4.13194 5.65259 4.10805 5.60801 4.073 5.57304L2.715 4.21504C3.60023 2.97869 4.89091 2.09183 6.36246 1.70875C7.83401 1.32568 9.39329 1.47064 10.769 2.11842C12.1447 2.7662 13.2498 3.8758 13.8919 5.25415C14.5341 6.6325 14.6727 8.19236 14.2836 9.66233C13.8945 11.1323 13.0023 12.4193 11.7624 13.2995C10.5224 14.1797 9.01312 14.5973 7.49708 14.4796C5.98105 14.362 4.55424 13.7165 3.4649 12.6556C2.37557 11.5947 1.69266 10.1854 1.535 8.67304C1.51458 8.47506 1.41634 8.2933 1.26191 8.16774C1.10747 8.04219 0.909485 7.98312 0.7115 8.00354C0.513516 8.02397 0.331754 8.1222 0.206198 8.27664C0.0806424 8.43107 0.0215787 8.62906 0.0420004 8.82704C0.234389 10.6783 1.06615 12.4045 2.3941 13.7086C3.72206 15.0127 5.46311 15.813 7.31753 15.9718C9.17195 16.1306 11.0237 15.6379 12.554 14.5786C14.0844 13.5193 15.1975 11.9595 15.7018 10.168C16.2061 8.37638 16.0701 6.46503 15.3171 4.76295C14.5641 3.06087 13.2412 1.67456 11.5763 0.842674C9.91131 0.0107893 8.00843 -0.21462 6.1952 0.20525C4.38196 0.62512 2.77184 1.664 1.642 3.14304H1.643ZM7.75 4.00004C7.94891 4.00004 8.13968 4.07906 8.28033 4.21971C8.42098 4.36037 8.5 4.55113 8.5 4.75004V7.74204L10.528 8.55404C10.7067 8.63195 10.8481 8.77639 10.9221 8.95674C10.9961 9.13709 10.997 9.33918 10.9246 9.52019C10.8522 9.70119 10.7121 9.84688 10.5341 9.92638C10.3561 10.0059 10.1541 10.0129 9.971 9.94604L7.471 8.94604C7.33197 8.89033 7.21281 8.79426 7.12886 8.67021C7.04492 8.54616 7.00004 8.39982 7 8.25004V4.75004C7 4.55113 7.07902 4.36037 7.21967 4.21971C7.36032 4.07906 7.55109 4.00004 7.75 4.00004Z" fill="white"/>
</svg>
