<svg width="16" height="16" viewBox="0 0 16 16" fill="none" xmlns="http://www.w3.org/2000/svg">
<path d="M15.715 8.40751L12.25 6.81251V2.24251C12.2484 2.14663 12.2193 2.05323 12.1661 1.97345C12.1129 1.89366 12.0379 1.83085 11.95 1.79251L8.2 0.0675086C8.13418 0.0370481 8.06253 0.0212708 7.99 0.0212708C7.91748 0.0212708 7.84582 0.0370481 7.78 0.0675086L4.03 1.79251C3.94321 1.83267 3.86976 1.89689 3.81836 1.97753C3.76696 2.05818 3.73976 2.15188 3.74 2.24751V6.81751L0.290002 8.40751C0.203212 8.44767 0.129761 8.51189 0.0783602 8.59253C0.0269594 8.67318 -0.000235112 8.76688 1.53137e-06 8.86251V13.7525C-0.000235112 13.8481 0.0269594 13.9418 0.0783602 14.0225C0.129761 14.1031 0.203212 14.1673 0.290002 14.2075L4.04 15.9325C4.10582 15.963 4.17748 15.9787 4.25 15.9787C4.32253 15.9787 4.39418 15.963 4.46 15.9325L8 14.3025L11.54 15.9325C11.6058 15.963 11.6775 15.9787 11.75 15.9787C11.8225 15.9787 11.8942 15.963 11.96 15.9325L15.71 14.2075C15.7968 14.1673 15.8702 14.1031 15.9216 14.0225C15.973 13.9418 16.0002 13.8481 16 13.7525V8.86251C16.0007 8.76742 15.9742 8.6741 15.9238 8.59351C15.8733 8.51292 15.8009 8.4484 15.715 8.40751ZM11.755 10.0275L9.2 8.86251L11.755 7.68751L14.31 8.86251L11.755 10.0275ZM11.255 6.80751L8.035 8.30751V4.46251C8.09527 4.45984 8.15456 4.44629 8.21 4.42251L11.25 3.02751V6.81751L11.255 6.80751ZM8 1.06751L10.555 2.24251L8 3.41751L5.45 2.24251L8 1.06751ZM4.25 7.68251L6.805 8.85751L4.25 10.0275L1.695 8.86251L4.25 7.68251ZM7.5 13.4275L4.25 14.9275V11.0825C4.31978 11.0784 4.38791 11.0596 4.45 11.0275L7.49 9.62751L7.5 13.4275ZM15 13.4275L11.77 14.9275V11.0825C11.8329 11.0757 11.894 11.0571 11.95 11.0275L14.99 9.62751L15 13.4275Z" fill="white"/>
</svg>
